<svg id="Lag_1" data-name="Lag 1" xmlns="http://www.w3.org/2000/svg" viewBox="0 0 513.73 513.83"><defs><style>.cls-1{fill:#06cb47;}.cls-2{fill:#232323;}</style></defs><title>deviantart</title><path class="cls-1" d="M176.77,102c24.14,0,48.37.1,72.51,0,9.22,0,16.47-5.18,20.51-12.54,13.67-24.75,26.51-49.92,39.46-75,2.69-5.18,6.73-9,10.56-13.26,1.35-1.45,2.9-1.56,4.66-1.56,28.8,0,57.7.11,86.49-.1,3.21,0,4,1,4,4.14-.1,28.69-.1,57.28,0,86A13.31,13.31,0,0,1,413.14,96q-44.91,85.6-89.6,171.11c-3.21,6.11,1.87,14.4,8.91,14.4,25.89,0,51.79.1,77.68-.11,3.83,0,5,.83,4.87,4.77q-.31,59,0,118.07c0,4.15-1.14,5.18-5.18,5.18q-73.33-.15-146.56-.1c-9.22,0-16.57,5.28-20.61,12.53-14.19,25.59-27.35,51.79-41.12,77.58-4,7.56-9.43,12.74-19.78,12.53-26.42-.82-52.83-.31-79.24-.2-4,0-5.18-.94-5.18-5.08.21-28,.1-55.93,0-83.9a17,17,0,0,1,2.28-8.39q44.6-85.14,89.18-170.17c3.11-6-1.76-14.19-8.7-14.19-25.69,0-51.48-.11-77.17.1-4.66,0-5.59-1.34-5.59-5.69.21-39.05.21-78,0-117,0-4.76,1.45-5.59,5.8-5.59C127.68,102.14,152.23,102,176.77,102Z" transform="translate(0.4 0.94)"/><path class="cls-2" d="M1.05,4a1.5,1.5,0,0,0,0-3,1.5,1.5,0,0,0,0,3Z" transform="translate(0.4 0.94)"/><path class="cls-2" d="M511.88,2.06a1.5,1.5,0,0,0,0-3,1.5,1.5,0,0,0,0,3Z" transform="translate(0.4 0.94)"/><path class="cls-2" d="M511.88,511.61a1.5,1.5,0,0,0,0-3,1.5,1.5,0,0,0,0,3Z" transform="translate(0.4 0.94)"/><path class="cls-2" d="M1.69,512.89a1.5,1.5,0,0,0,0-3,1.5,1.5,0,0,0,0,3Z" transform="translate(0.4 0.94)"/></svg>
