<svg id="Lag_1" data-name="Lag 1" xmlns="http://www.w3.org/2000/svg" viewBox="0 0 741.71 379.96"><defs><style>.cls-1,.cls-2,.cls-3{fill:#ff0101;}.cls-1,.cls-2,.cls-5{stroke:#bfb5af;}.cls-1,.cls-2,.cls-5,.cls-6{stroke-miterlimit:10;}.cls-1{stroke-width:3.32px;}.cls-2{stroke-width:5.31px;}.cls-4,.cls-5{isolation:isolate;font-size:132px;font-family:Algerian;}.cls-5{fill:none;stroke-width:1.91px;}.cls-6{fill:#bfb5af;stroke:#ff0101;stroke-width:3px;}</style></defs><title>logo</title><path class="cls-1" d="M132.46,44.12,7.62,54.12c-.3.34-1.41-.64-1.33-1.32l2-13.95c0-.16.67-10.62,0-15.27-.07-.5-1.82-6.83-2-7.31l-4-12.61c-.09-.69-2-2,1.32-2l127.83,2" transform="translate(0 0)"/><path class="cls-1" d="M132.46,44.12,255,54.12c.3.34,1.41-.64,1.33-1.32l-2-13.95c0-.16-.67-10.62,0-15.27.07-.5,1.82-6.83,2-7.31l4-12.61c.09-.69,2-2-1.32-2l-127.83,2" transform="translate(0 0)"/><path class="cls-2" d="M172.63,48.44l-1.33,86.33L172,245l4.64,131.47c0,1.68-1.5.42-3.15.16L150,372.49c-.29,0-18.29-.71-18.59-.66l-16.94.92h-.17l-22.24,3.83c-1.65.28-3.14,1.55-3.15-.13l1.33-132.14.66-109.56L88.3,48.42" transform="translate(0 0)"/><polygon class="cls-3" points="168.65 83.64 93.61 83.64 90.29 27.86 171.3 27.86 168.65 83.64"/><text class="cls-4" transform="translate(103.38 240.59)">attorium</text><text class="cls-5" transform="translate(103.38 240.59)">attorium</text><path class="cls-6" d="M732,267.86" transform="translate(0 0)"/><path class="cls-6" d="M182,267.86" transform="translate(0 0)"/></svg>
