<svg id="Lag_1" data-name="Lag 1" xmlns="http://www.w3.org/2000/svg" viewBox="0 0 511.4 509.18"><defs><style>.cls-1{fill:none;stroke-width:22.85px;}.cls-1,.cls-3{stroke:#000;stroke-miterlimit:10;}.cls-2{fill:#bfb5af;}.cls-3{fill:#fff;stroke-width:3.97px;}.cls-4{fill:#383838;}</style></defs><title>painter</title><path class="cls-1" d="M404.4,255.83a143.58,143.58,0,0,1-286,15l-16.51.86a158,158,0,0,0,315.09-16.55ZM253.37,110a143.48,143.48,0,0,1,127.78,65l13.37-.7a158,158,0,0,0-278.8,14.59l17.34-.9A143.48,143.48,0,0,1,253.34,110Z" transform="translate(-0.01 -1.16)"/><path d="M190.4,196.84c-1.74,2.79-2.27,5.34-3,8.94a56.83,56.83,0,0,0-1,11.93,127.21,127.21,0,0,0,2,21.86,147,147,0,0,0,4,15.89c1.85,6.36,3.49,11,6,17.89,4,11.2,4.33,11.08,6.46,17.39a219.87,219.87,0,0,1,6,21.86c2.91,12.45,4.37,18.68,5,25.83,1.2,14.45.39,13.68,3,23.85,1.28,5.05.89,10.34,2,17.88a70.1,70.1,0,0,1,1,11.93c-.11,7.48-1.55,9.28,0,11.92,2,3.31,6.29,4,11.92,5,4.89.81,6.84.19,16.89,0,7.85-.15,6.79.21,11.93,0,3.4-.14,5-.33,18.88-2,8.11-1,10.7-1.26,14.9-2a71.93,71.93,0,0,0,11.92-3c4.71-1.63,7.07-2.44,7.95-4,2.21-3.81-2.27-9.27-6.95-17.89-1.09-2,.32.43-9.94-24.84-2.4-6-5.06-12.42-10.93-26.82-3.48-8.54-5.85-12.75-6.95-17.89-3-13.91-2-17.88-3-26.83-.25-2.34,2.13-3.79,3-5,1.71-2.35,4.36-5.31,12.91-10.92,7.85-5.16,8.89-4.81,11.93-7.95a26.35,26.35,0,0,0,6-8.95c2.48-6.41,0-8.46,2-16.89,1.12-4.79,1.9-4,4-10.93a78.83,78.83,0,0,0,3-14.9,66.37,66.37,0,0,0,0-14.91c-.89-7.62-4.32-14.4-6.95-16.89s-1.49,1.84-12.92-1c-5.83-1.44-4.85-3.92-9.94-5-7.17-1.49-8.94,1.28-12.92,0-7.65-2.47-7.19-4.23-11.92-5-7.53-1.16-9.8,6.18-21.86,9-7.28,1.66-8.26-1.33-14.9,1-7.57,2.64-6.91,6.75-14.91,9.93-7,2.78-9.1.32-15.89,4A21.19,21.19,0,0,0,190.4,196.84Z" transform="translate(-0.01 -1.16)"/><path class="cls-2" d="M225.67,194.36c.5-.36,2.3,1.34,3.26,2.25a17.93,17.93,0,0,1,3.7,4.7c1.47,2.77,1.11,4.42,2,7,1.69,4.9,3.36,4.69,6,9.93,1.39,2.83,3.64,7.39,3,12.92a52.61,52.61,0,0,1-2,7c-1.5,4.73-2.08,5.56-3,6-1.83.8-4.45-.4-6-2-2-2.15-1.27-4.18-3-8.94-1-2.62-1.53-3-3-6-4.46-9.12-4.36-10.78-4-11.93a23.59,23.59,0,0,1,2.49-4.47,20.74,20.74,0,0,0,3-6.95C228.88,198.85,224.92,194.89,225.67,194.36Z" transform="translate(-0.01 -1.16)"/><path class="cls-2" d="M248.53,186.41c.08,0,.82,1.24,2.26,3,.16.2.7.84,1.71,2,2,2.13,2.65,2.51,4,4,.48.54.71.82,4,5,2.68,3.42,2.78,3.55,3,4,.94,2,.7,3.31,1,7,.22,2.69.38,2.29,1,6.95a92.15,92.15,0,0,1,1,9.94,26.93,26.93,0,0,1-.5,6.46c-.49,2.37-.8,3.76-2,5-1.82,1.86-4.41,1.93-6,2s-4.91.16-7-2c-1.25-1.31-.84-2.26-2-7.95a47.4,47.4,0,0,0-2-8c-1.22-3.16-2.1-3.93-2-6a10.13,10.13,0,0,1,2-5c1.61-2.58,2.43-2.44,4-5a14.62,14.62,0,0,0,2-5,14.25,14.25,0,0,0,0-5C252,191.38,248.37,186.5,248.53,186.41Z" transform="translate(-0.01 -1.16)"/><path class="cls-2" d="M282.81,180c-.63.5.76,2.08,0,4-.57,1.42-1.59,1.17-3,3s-.72,2.3-2,4c-1.49,2-3,2-3,3s1.29,1.26,4,3c4,2.54,3.86,3.54,6,4a17.24,17.24,0,0,0,5,0h0a23,23,0,0,0,3-6c.4-1.36,1.25-4.28,0-6.95a17.55,17.55,0,0,0-3-4h0S284,179,282.81,180Z" transform="translate(-0.01 -1.16)"/><path class="cls-2" d="M300.69,186.91c-1.06.51-.89,2.38-1,7.94,0,2-.08,3.09,0,5,.15,3.41.48,4.27,1,5a5.64,5.64,0,0,0,3,2c3.61,1.06,6.7-1.74,7-2a6.92,6.92,0,0,0,2-3c.5-1.56.28-3-2-8.94-1-2.65-.73-4.08-2-5a6.71,6.71,0,0,0-3-1c-.79-.09-1,0-3,0C300.87,186.9,300.9,186.81,300.69,186.91Z" transform="translate(-0.01 -1.16)"/><path class="cls-2" d="M280.82,222.68c-.29-.63-.44-1.61,0-2s1.09.3,2,0c1.06-.36.91-1.62,2-2,.85-.29,1.29.38,2,0s.88-1.36,1-2a7.29,7.29,0,0,0,0-2c-.09-2,.13-1.92,0-3a6.8,6.8,0,0,0-1-3c-.41-.61-.53-.52-2-2s-1.37-1.58-2-2a7.06,7.06,0,0,0-3-1,6.3,6.3,0,0,0-3,0,5.94,5.94,0,0,0-2,1,23.36,23.36,0,0,0-2,2,11.56,11.56,0,0,0-1,1c-.66.89-.62,1.56-1,3-.59,2.22-1.12,2.13-1,3,.2,1.36,1.5,1.36,2,3,.31,1.09-.22,1.26,0,3a6.42,6.42,0,0,0,3,5,13.46,13.46,0,0,0,4,2c2,.69,2.22.46,4,1a36.05,36.05,0,0,1,6,3c2.55,1.43,3.33,2,4,3a14.69,14.69,0,0,1,1,2,10.56,10.56,0,0,1,1,3c0,.33.31,2.69-1,4-1.09,1.07-2.24.4-7,1a10.12,10.12,0,0,0-4,1,8.51,8.51,0,0,0-3,3,16.54,16.54,0,0,0-2,5c-.12.4-.56,1.9-1,4-.59,2.83-.43,3.22-1,4a6,6,0,0,1-4,2c-2,.29-2.39-.47-4,0-1.27.37-1.24.92-3,2s-2.32.89-5,2a17.36,17.36,0,0,0-4,2c-3.09,2.37-3.74,6.44-4,7.95s0,1.55,0,7.95v4c.07,2.19.33,4.72,2,11.93,1,4.45,1.54,6.67,2,7.95.84,2.39,1.51,3.58,5,9.93,5.58,10.26,5.22,9.71,6,10.93,3.67,6.17,4.4,6.36,6,9.94,2.06,4.73,1.07,5.05,3,8.94,2.14,4.36,3.65,4.53,7,9.94.75,1.23,1.82,3.47,4,7.95,3.63,7.56,5.45,11.34,5.72,12.39,0,.16.14.53.24.52.35,0,.81-5,0-8.94-1-5-3.48-5.8-6.95-11.92-1.22-2.15-2.47-5.74-5-12.92-3.13-9-2.76-9.25-5-14.9-2.52-6.47-3.22-6.69-5-11.93a94,94,0,0,1-3-11.92,115,115,0,0,1-2-15.9c-.21-4-.12-6,1-7.95,1.4-2.52,3.55-3.55,6-5,.49-.28,4.3-3.17,11.92-8.94,6.59-5,9.88-7.47,12.92-10.93s5.52-6.33,7-10.93c.66-2.13.27-2,1-11.92.61-8.35,1-9.94,0-12.92-.34-1-1.55-3-4-7-3.16-5.19-4.51-6.71-6-7.95-2-1.72-5.17-3.71-6-3-1,.92,3.29,4.86,3,10.93a11.46,11.46,0,0,1-2,6c-.22.31-3.33,4.57-7,4A4.18,4.18,0,0,1,280.82,222.68Z" transform="translate(-0.01 -1.16)"/><path class="cls-2" d="M201.33,234.6c.14-.18.63.14,1.63.24a6.84,6.84,0,0,0,2.34-.24c2.13-.48,2.36-1.18,3-1,1.29.38.26,3.29,2,6,.87,1.33,1.25.79,5,4a15,15,0,0,1,3,3c1.43,2.19.91,3.34,2,4s2.08-.33,6-1c2.22-.37,3.34-.56,4,0,.89.78.6,2.52,0,6-.46,2.69-.76,2.94-1,5a15.35,15.35,0,0,0,0,5c.43,2.2,1.41,3.67,3,6,1.71,2.51,2.41,2.88,4,5a36.59,36.59,0,0,1,4,7,52,52,0,0,1,4,11.92c.8,4.12.19,3.92,1,8.94a71.3,71.3,0,0,0,3,11.93A128.53,128.53,0,0,0,253,328a33.13,33.13,0,0,1,3,8.94c.11.67.79,4.7,0,5-.64.21-1.89-2.07-3-4-3.47-6.05-.79-.39-8.94-13.92-3.33-5.51-5-8.26-7-11.92-1.38-2.55-3-5.67-5-9.94-.38-.83-1.25-2.89-3-7-3-7-3.2-7.59-4-8.94s-2.21-3.27-5-7c-4.76-6.34-4.84-6-6-7.95a40.46,40.46,0,0,1-4-9.93c-.84-3-.8-3.76-2-9-.88-3.89-.42-5.82-2-7.94a11.15,11.15,0,0,1-2-3c-.7-1.74-.24-2.38-1-4C202.47,235.79,201.1,234.91,201.33,234.6Z" transform="translate(-0.01 -1.16)"/><path class="cls-3" d="M202.32,223.67c-4.77-2.2-18.68.18-13.91,0,.6,0-15.6.57-23.84,1-2.64.14-15.64.79-29.81,1-17.49.25-15.4.08-28.32.49-13.56.44-17.38.18-33.78,1-20,1-17.65.88-35.28,1.49-14.4.49-14.4.49-20.37.49s-8.94-1-13.41.5c-2.28.76-2,5.76,0,7,2.48,1.49,10.81.49,12.42.49,6,0,12.6.41,18.88,0,4.05-.27,5.85-.31,14.41-.49,7.95-.18,8.58.12,16.89,0,9.93-.14,13.91-.64,21.86-1,12-.54,18.88-.54,31.3-.49,18.72.07,31-.53,44.21-1.49,27-2,23.85-1,31.3-1.5,1.75-.11,13.6,1,14.41-.49S206.66,225.67,202.32,223.67Z" transform="translate(-0.01 -1.16)"/><path class="cls-3" d="M304.17,211.25c.66-1.21,3.62-.4,8.94,0,2.68.2,5.44.13,10.93,0,7.54-.18,7.61-.79,14.91-1,5.85-.17,6.19.2,11.92,0,5-.18,6.83-.55,11.92-1,12.92-1.12,13.91,0,21.86-1,6.77-.85,5-1,15.9-4,11.44-3.12,12.92-3,22.85-5,7-1.42,6.79-1.39,13.91-3,7.52-1.68,8.85-2.25,14.91-4,7.95-2.27,9-3,10.93-2,3.19,1.62,1.46,7,2,24.84.25,8.56.81,12.54-2,14.91-2.58,2.18-6.2,1-9.94,1-13.91,0,.82,1.84-29.81-2-15.89-2-14.47-2.6-25.83-4a219,219,0,0,0-25.84-2c-6.42-.07-11.92.29-22.85,1-12.62.81-18.66,1-28.81,1-3,0-7.36,1.56-9.94-1-1.46-1.44-.94-2.81-3-7C305.22,213.24,303.64,212.24,304.17,211.25Z" transform="translate(-0.01 -1.16)"/><path d="M348.58,212.1,390.42,209c1.91-.15,1.92-3.13,0-3l-41.84,3.15C346.68,209.27,346.67,212.25,348.58,212.1Z" transform="translate(-0.01 -1.16)"/><path d="M329.94,212.31l24-.34a1.49,1.49,0,1,0,0-3l-24,.34A1.49,1.49,0,0,0,329.94,212.31Z" transform="translate(-0.01 -1.16)"/><path d="M360,210a44.23,44.23,0,0,1,.72,11.82c-.14,1.91,2.84,1.9,3,0a47.23,47.23,0,0,0-.83-12.61c-.38-1.89-3.25-1.09-2.87.79Z" transform="translate(-0.01 -1.16)"/><path d="M372.73,210a22.86,22.86,0,0,1-.48,11.38,1.49,1.49,0,0,0,2.87.8,25.84,25.84,0,0,0,.48-13c-.4-1.88-3.27-1.08-2.87.8Z" transform="translate(-0.01 -1.16)"/><path d="M465.63,186.91c1.77-.57,3.5-1,7-2,3.67-1,5.56-1.52,8-2,3.73-.72,3.47-.37,6-1,3.62-.92,4.16-1.69,6.95-2,2.21-.24,2.07.22,5,0a40.06,40.06,0,0,0,6-1c3.82-.89,4.3-1.43,5-1,1.32.87.26,3.49,0,9.94-.16,3.88.2,3.68,0,7.95a53.77,53.77,0,0,1-1,8.94,37.38,37.38,0,0,1-2,7,48.27,48.27,0,0,1-5,8.94c-1.77,2.58-2.48,3.16-3,5-.62,2.26,0,3.26-1,5a6.16,6.16,0,0,1-4,3c-2,.38-1.15.58-4.47-.5-2.43-.8-6-.87-10.93-1-.92,0-2.22-.05-4,0-3.93.13-4.55-.43-8.95,0-4.66.47-8.5.19-9.43-.49s-1.72-1.94-2-9.94c-.25-7.5.42-7.25,0-11.92s-1.21-6.35-1-10.93c.15-3.08.22-4.63,1-6C455.2,190.27,458.71,189.12,465.63,186.91Z" transform="translate(-0.01 -1.16)"/><path d="M2,4.16a1.5,1.5,0,0,0,0-3,1.5,1.5,0,0,0,0,3Z" transform="translate(-0.01 -1.16)"/><path class="cls-4" d="M508.78,5.25a1.5,1.5,0,0,0,0-3,1.5,1.5,0,0,0,0,3Z" transform="translate(-0.01 -1.16)"/><path class="cls-4" d="M2.32,510.34a1.5,1.5,0,0,0,0-3,1.5,1.5,0,0,0,0,3Z" transform="translate(-0.01 -1.16)"/><path class="cls-4" d="M510,510.34a1.5,1.5,0,0,0,0-3,1.5,1.5,0,0,0,0,3Z" transform="translate(-0.01 -1.16)"/></svg>
