<svg id="Lag_1" data-name="Lag 1" xmlns="http://www.w3.org/2000/svg" viewBox="0 0 511.06 508.13"><defs><style>.cls-1{fill:none;}.cls-1,.cls-2,.cls-3,.cls-4{stroke:#bfb5af;stroke-miterlimit:10;}.cls-1,.cls-2{stroke-width:3.98px;}.cls-3{stroke-width:2.3px;}.cls-4{stroke-width:2.98px;}</style></defs><title>tattooChair</title><path d="M282,462.91V405.56a15.86,15.86,0,0,0-15.86-15.86H259.3V305.39H231V389.7h-4.69a15.86,15.86,0,0,0-15.86,15.86v57.35H135.34V509.5H355V462.91Z" transform="translate(-2.01 -3.35)"/><path class="cls-1" d="M282,462.91V405.56a15.86,15.86,0,0,0-15.86-15.86H259.3V305.39H231V389.7h-4.69a15.86,15.86,0,0,0-15.86,15.86v57.35H135.34V509.5H355V462.91Z" transform="translate(-2.01 -3.35)"/><rect class="cls-2" x="98.53" y="235.48" width="280.55" height="70.99" rx="14.16"/><path class="cls-2" d="M126.5,299.51l-4.65,1.75a21.34,21.34,0,0,1-27.54-13L5.33,42.1A22,22,0,0,1,18,14l4.65-1.75a21.33,21.33,0,0,1,27.54,13l89,246.2A22,22,0,0,1,126.5,299.51Z" transform="translate(-2.01 -3.35)"/><path class="cls-3" d="M75.52,59.58h0A15.19,15.19,0,0,1,56,50.38l-9-25A15.67,15.67,0,0,1,56,5.46h0a15.17,15.17,0,0,1,19.55,9.2l9,25A15.66,15.66,0,0,1,75.52,59.58Z" transform="translate(-2.01 -3.35)"/><polygon points="289 240.06 242.07 157.13 242.07 153.4 87.65 153.4 87.65 182.24 226.53 182.24 266.69 253.2 289 240.06"/><polygon class="cls-1" points="289 240.06 242.07 157.13 242.07 153.4 87.65 153.4 87.65 182.24 226.53 182.24 266.69 253.2 289 240.06"/><path class="cls-4" d="M507.64,367.45l-15.33,19.08A17.13,17.13,0,0,1,467.87,389L348.39,289.11A18,18,0,0,1,346,264.18L361.3,245.1a17.14,17.14,0,0,1,24.45-2.47l119.47,99.88A18,18,0,0,1,507.64,367.45Z" transform="translate(-2.01 -3.35)"/></svg>
