<svg id="Lag_1" data-name="Lag 1" xmlns="http://www.w3.org/2000/svg" xmlns:xlink="http://www.w3.org/1999/xlink" viewBox="0 0 400.45 525.05"><defs><style>.cls-1,.cls-4{fill:none;}.cls-2{clip-path:url(#clip-path);}.cls-3{fill:red;}.cls-4{stroke:#bfb5b0;stroke-width:4.5px;}.cls-4,.cls-5,.cls-6{stroke-miterlimit:10;}.cls-5{writing-mode:tb;text-orientation:upright;glyph-orientation-vertical:0deg;font-size:96px;}.cls-5,.cls-6{stroke:#bfb5af;font-family:Algerian;}.cls-6{font-size:116px;stroke-width:1.5px;}</style><clipPath id="clip-path" transform="translate(0 0)"><rect class="cls-1" x="17.85" width="354.76" height="512.33"/></clipPath></defs><title>guestArtist</title><g class="cls-2"><path class="cls-3" d="M196.82,60.89,27.75,74.63c-.41.45-1.9-.89-1.8-1.84L29,52c0-.22.56-12.93-.34-19.52C27.86,29,26.18,23.09,26,22.43L20.56,5c-.12-1-1.69-3,1.8-2.75,11.69.84,14.39.91,26.08,1.83C94.3,6.86,148.83,8,195,8.69" transform="translate(0 0)"/><path class="cls-4" d="M196.82,60.89,27.75,74.63c-.41.45-1.9-.89-1.8-1.84L29,52c0-.22.56-12.93-.34-19.52C27.86,29,26.18,23.09,26,22.43L20.56,5c-.12-1-1.69-3,1.8-2.75,11.69.84,14.39.91,26.08,1.83C94.3,6.86,148.83,8,195,8.69" transform="translate(0 0)"/><path class="cls-3" d="M196.74,60.89l166,13.74c.41.45,1.9-.89,1.8-1.84l-2.77-21.33c0-.23-1.2-10.27.56-19.11.1-.69,2-9.26,2.21-9.92L369.88,5c.83-1.35.83-3-1.8-2.75-12.54,1.4-21.54,2-33.34,3.09C288.88,6.29,241,7,194.94,8.69" transform="translate(0 0)"/><path class="cls-4" d="M196.74,60.89l166,13.74c.41.45,1.9-.89,1.8-1.84l-2.77-21.33c0-.23-1.2-10.27.56-19.11.1-.69,2-9.26,2.21-9.92L369.88,5c.83-1.35.83-3-1.8-2.75-12.54,1.4-21.54,2-33.34,3.09C288.88,6.29,241,7,194.94,8.69" transform="translate(0 0)"/><path class="cls-3" d="M251.56,66.17l-1.81,116.52.9,148.78L257,508.93c0,2.26-2.05.57-4.31.21l-31.92-5.59c-.4-.06-25-1-25.36-.89l-23.1,1.25-.24,0-30.33,5.16c-2.25.38-4.28,2.09-4.3-.17l1.81-178.36.91-147.88L136.53,66.17" transform="translate(0 0)"/><path class="cls-4" d="M251.56,66.17l-1.81,116.52.9,148.78L257,508.93c0,2.26-2.05.57-4.31.21l-31.92-5.59c-.4-.06-25-1-25.36-.89l-23.1,1.25-.24,0-30.33,5.16c-2.25.38-4.28,2.09-4.3-.17l1.81-178.36.91-147.88L136.53,66.17" transform="translate(0 0)"/></g><polygon class="cls-3" points="246.72 117.06 141.83 117.06 137.19 39.09 250.43 39.09 246.72 117.06"/><text class="cls-5" transform="translate(193.7 17.64)">GUES</text><text class="cls-6" transform="translate(1.5 494.22)">ARTIST</text></svg>
