<svg id="Lag_1" data-name="Lag 1" xmlns="http://www.w3.org/2000/svg" viewBox="0 0 509.57 509.84"><defs><style>.cls-1,.cls-10,.cls-12,.cls-14,.cls-21,.cls-22,.cls-23,.cls-3,.cls-4,.cls-5,.cls-8{fill:none;}.cls-1,.cls-10,.cls-21,.cls-22,.cls-9{stroke:#bfb5af;}.cls-1,.cls-11,.cls-12,.cls-13,.cls-15,.cls-16,.cls-2,.cls-23,.cls-3,.cls-4,.cls-6,.cls-8{stroke-linecap:round;}.cls-1,.cls-10,.cls-11,.cls-12,.cls-13,.cls-14,.cls-15,.cls-16,.cls-17,.cls-18,.cls-19,.cls-2,.cls-20,.cls-21,.cls-22,.cls-23,.cls-3,.cls-4,.cls-5,.cls-6,.cls-8,.cls-9{stroke-miterlimit:10;}.cls-1{stroke-width:13.67px;}.cls-11,.cls-13,.cls-15,.cls-16,.cls-17,.cls-18,.cls-19,.cls-2,.cls-20,.cls-6,.cls-7{fill:#bfb5af;}.cls-11,.cls-12,.cls-13,.cls-14,.cls-15,.cls-16,.cls-17,.cls-18,.cls-19,.cls-2,.cls-20,.cls-23,.cls-3,.cls-4,.cls-5,.cls-6,.cls-8{stroke:#000;}.cls-2{stroke-width:8.03px;}.cls-3{stroke-width:10.5px;}.cls-13,.cls-14,.cls-4{stroke-width:5.47px;}.cls-5,.cls-6{stroke-width:10.94px;}.cls-8{stroke-width:8.2px;}.cls-9{stroke-width:4.01px;}.cls-10,.cls-12{stroke-width:5.38px;}.cls-11{stroke-width:6.43px;}.cls-15{stroke-width:2.62px;}.cls-16{stroke-width:12.93px;}.cls-17{stroke-width:4.34px;}.cls-18{stroke-width:5.83px;}.cls-19{stroke-width:4.8px;}.cls-20{stroke-width:3.85px;}.cls-21{stroke-width:2.86px;}.cls-22{stroke-width:2.81px;}.cls-23{stroke-width:3.33px;}</style></defs><title>tattooIco</title><line class="cls-1" x1="33.63" y1="469.6" x2="6.84" y2="503"/><path class="cls-2" d="M310.05,252.09c-3.75-5.45-5.88-8.51-7.66-13.15s-2.77-4.62-3.52-12.78c-1.06-11.51-1.72-9.42-.6-14,2.06-8.37,2.94-10.95,7-17.26,3.56-5.55,5.36-8.33,8-11.18a48.83,48.83,0,0,1,8.73-7.33c3.56-2.49,20-10.74,24.67-12.39l.69-.24c5.38-1.86,40.39-16.88,42.54-18.64,5.49-4.53,9.76-7.9,12.79-12.34A114.44,114.44,0,0,0,411.41,118c1.93-4.24,3.51-8,5.73-14.19s3-13.5,4.15-17.17c2.19-7.38,1.56-16.21,2.11-24.18s-.42-21.58.05-23.38c1.92-7.33,2-7.74,4.62-13.16,2-4.08,1.14-3.22,5.55-5.14A86.7,86.7,0,0,0,442,16.37c1.91-.87,25.74,7.73,27.16,9.83,1.72,2.53,6.52,20.55,7.11,25,.51,4,.44,8.08.27,16.08-.2,10.23-2.48,27.51-4.2,32.81-1.52,4.65-2.61,6.56-6.66,15.17-6.45,13.67-10.8,19.56-17.72,28.93-3.84,5.25-5.63,8.21-9.67,12.27-1.83,1.86-3.83,3.61-4.7,4.37-3.32,2.92-15.55,12.3-19.46,15.3-12.64,9.75-21.08,15.24-28.85,18.62-6.45,2.8-3.42.8-9.67,4.24a99.26,99.26,0,0,0-12,8.27c-.21.24-4.67,4.7-5.37,8.48a35.27,35.27,0,0,0-.86,7.47" transform="translate(-2.16 0)"/><path class="cls-3" d="M498.69,183.35l-139-110.47c-4.54-3.6-10.48-1.52-13.21,4.62l-.25.56c-2.73,6.15-1.25,14.13,3.29,17.73l139,110.47c4.53,3.6,10.47,1.53,13.2-4.62l.25-.56C504.7,194.94,503.22,187,498.69,183.35Z" transform="translate(-2.16 0)"/><line class="cls-4" x1="370.42" y1="292.03" x2="286.88" y2="246.63"/><path class="cls-5" d="M405,28.38c-2.91.93-6.28,1.8-2.64,12.41,1.86,5.41.69,1.4,2.67,7.63a70.79,70.79,0,0,0,4.47,11.12c8.79,20.75,18,56.4,19.9,54.71.19-.17.09-.65-6.05-19.73-5-15.68-5.58-17.23-6.63-21.38-1-3.88-2.64-10.86-4.07-17.25-.54-2.43-.62-2.84-1.27-5.75-1.9-8.45-2.94-9.43-3.06-12.24s-.59-8.91-5.14-9" transform="translate(-2.16 0)"/><path class="cls-6" d="M413.75,48.64c9.75-5.49,20.38-10.14,31.44-16.36" transform="translate(-2.16 0)"/><path class="cls-7" d="M81.45,413.58h0c5.25,7.39,5.06,19-.43,25.86L54.27,472.79c-5.48,6.84-14.26,6.39-19.51-1h0c-5.25-7.38-5.06-19,.42-25.86l26.75-33.35C67.41,405.74,76.2,406.19,81.45,413.58Z" transform="translate(-2.16 0)"/><line class="cls-8" x1="199.66" y1="161.69" x2="168.47" y2="200.58"/><path class="cls-9" d="M79.11,434.11,66.85,416.87c-11.74-16.52-11.31-42.54,1-57.83l87.51-109.11c12.26-15.29,31.9-14.28,43.64,2.23l12.26,17.25c11.74,16.51,11.31,42.54-1,57.82L122.75,436.35C110.49,451.63,90.85,450.63,79.11,434.11Z" transform="translate(-2.16 0)"/><ellipse class="cls-10" cx="192.97" cy="275.89" rx="17.08" ry="45.32" transform="translate(-120.55 147.8) rotate(-32.67)"/><path class="cls-11" d="M188.49,280.41h0c-5.13-7.2-4.94-18.56.41-25.23L229.16,205c5.35-6.67,13.92-6.23,19,1h0c5.12,7.21,4.94,18.56-.41,25.23l-40.26,50.2C202.18,288.06,193.61,287.62,188.49,280.41Z" transform="translate(-2.16 0)"/><line class="cls-12" x1="268.91" y1="257.52" x2="168.29" y2="203.59"/><line class="cls-8" x1="185.41" y1="107.24" x2="156.12" y2="144.9"/><line class="cls-8" x1="385.31" y1="261.2" x2="199.66" y2="161.69"/><line class="cls-8" x1="294.31" y1="165.31" x2="186.18" y2="107.35"/><polygon class="cls-7" points="273.13 256.92 172.89 202.12 200.5 166.75 309.2 224.52 273.13 256.92"/><polygon class="cls-7" points="382.19 256.81 199.24 156.22 187.32 111.71 284.4 163.02 382.19 256.81"/><polygon class="cls-7" points="370.13 288.22 261.9 229.45 253.45 195.15 387.01 264.27 370.13 288.22"/><path class="cls-13" d="M483.87,182.05" transform="translate(-2.16 0)"/><path class="cls-13" d="M463.65,205.26" transform="translate(-2.16 0)"/><path d="M422.05,32.44l8.75,32.25c3.15,11.61,21.08,8.85,32.72,1.9l24.91-31.95c6.91-8.25,8.51-8,9.94-11.52,1.6-4.8-2.71-4.69-9.12-6.79-10.78-3.54-21.87-12.12-28.37-13.51C449.51.4,449.27-.82,439.75.62,426.08,2.68,418.9,20.82,422.05,32.44Z" transform="translate(-2.16 0)"/><path class="cls-13" d="M440.15,219.47" transform="translate(-2.16 0)"/><path class="cls-13" d="M426.79,206.73" transform="translate(-2.16 0)"/><path class="cls-13" d="M477.72,170.39" transform="translate(-2.16 0)"/><path class="cls-14" d="M455.17,185.27l-45.88,38.82c-7.09,5-11.46,7.77-20.59,16.62,4.08,4.09,21.61-11.68,29.22-12.78,11.15-1.6,28.37-8.46,34.3-12.06,10.38-6.3,25.12-10.81,19.15-18.24-11.08-13.8-14.28-12.35-18.4-12.31" transform="translate(-2.16 0)"/><path class="cls-13" d="M465.22,283.36a24.89,24.89,0,0,1-4.73,5.32,21.63,21.63,0,0,1-9.72,5.32,23.61,23.61,0,0,1-11.89-.54,37.76,37.76,0,0,1-9.77-4.64,97.55,97.55,0,0,0-9.83-5.45,52.33,52.33,0,0,0-6.07,1.8c-15.17,8.07-22.43,10-31.67,13.95-1.2.52-1.14,1.82-4.42-.16-33.89-20.47-45.05-28.88-51.5-37.23-4-5.15-6.25-8-8.23-12.54s-6.2-21.77-5.28-26.45c1.68-8.53,2.45-11.17,6.18-17.79,3.31-5.83,5-8.75,7.51-11.8,3-3.7,14.49-12.36,19.63-15.41a105.16,105.16,0,0,1,12.82-6.92l.67-.29c5.29-2.28,39.54-20,41.61-21.95,5.27-5,8.54-10.34,11.37-15a104.91,104.91,0,0,0,7.54-15.15c1.74-4.39,2.75-7.7,4.69-14.09s3.1-11.19,4.06-15c1.85-7.55,2.08-19.47.75-27.31-.38-2.36-.95-5.84-1.74-10.18-1-5.53-1.43-7.85-1.43-9.76,0-4.12,1.25-7.76,3.63-13.38,1.78-4.23,2.79-5.09,4.65-7.67a23.16,23.16,0,0,1,7.42-6.77c1.86-1,3.42-3.39,7.68-4.13,6.38-1,11.2-.65,13.65.7,1.4.79,1.41.71,6.15,5.09,5.1,4.71,3.89,5.61,5.41,7.6,1.82,2.39,2.88,5.65,4.89,12A94.66,94.66,0,0,1,482.54,48c.7,4,1.35,31.49.66,37.07a87.43,87.43,0,0,1-2.42,12.08c-1.3,4.76-11.12,29.29-12.92,32.58-3,5.48-3,3.48-9.45,13.4-3.6,5.53-12.76,16.91-13.6,17.74-3.17,3.18-15,13.51-18.73,16.81-12.17,10.74-10.68,10.1-13.84,12.34-5.92,4.15-26.86,15.67-28.06,16.52a47.16,47.16,0,0,0-7.09,6.2c-.21.26-4.45,5.06-5,8.89a35.75,35.75,0,0,0-.53,7.53c0,3,1.47,5.31,2.74,7.32.75,1.19,2.67,4.21,5.62,5.32,1.39.54,2.8.56,8.93-2.06,5.13-2.21,6.54-3.23,12.8-6.07,1.69-.76,24.44-10.42,25.58-11,5.74-3.11,5.6-3.54,9.82-5.84a155.83,155.83,0,0,0,18.11-11.86c2-1.55,27.35-30.32,29.05-30.57.59-.08,3.4-2.22,6-1.29,2.42.87,15.47,9.85,17.9,14.27,1.29,2.32.78,9.17.78,10.53a55.34,55.34,0,0,1-3.59,14.76,34.31,34.31,0,0,1-7.56,10.76c-2.71,2.38-11,9.1-12.87,10.3a36,36,0,0,1-7.35,3.41c-5.41,2-7,1.91-7.68,3.82-.65,1.72.17,3.19.83,7.21.68,4.2,1.32,9.69,1.14,12-.69,5.58-.51,8.17-1.53,11.72C469,276.56,467.68,280.06,465.22,283.36Z" transform="translate(-2.16 0)"/><path d="M463.05,32.9c-.63-1.3-2.07-4.29-4.48-5.66-1.52-.86-2.91-.61-5.69-.11a14.58,14.58,0,0,0-4.52,1.41c-2.05,1-3.9,2-5.29,4.64-.41.78-.63,4.33-.51,8.13.1,3.14.12,2.77,1.33,7.78a108.42,108.42,0,0,1,2.55,13.76c.47,3.86.61,6.64.87,12,.15,3.21.27,6.89.87,12,.63,5.53,1.12,6.66,1.74,7.42,1,1.22,1.91,1,6.93,1,5.24,0,5.67.19,7-.42s4.41-2,4.84-5.54a26.87,26.87,0,0,0-.05-7.63c-.35-3.48-.93-4.41-.49-8.52.41-3.88,0-7.06-.76-13.41-.95-7.7-1.68-7.42-1.88-12.43a45.33,45.33,0,0,0-.63-8.39A23.37,23.37,0,0,0,463.05,32.9Z" transform="translate(-2.16 0)"/><ellipse class="cls-15" cx="457.62" cy="61.53" rx="15.12" ry="20.05" transform="translate(-3.87 14.44) rotate(-1.8)"/><ellipse cx="445.96" cy="261.64" rx="21.84" ry="26.62" transform="translate(-16.06 25.29) rotate(-3.2)"/><line class="cls-4" x1="286.88" y1="246.63" x2="271.03" y2="258.49"/><polygon class="cls-7" points="165.37 200.8 154.91 153.84 187.32 111.71 199.24 156.22 165.37 200.8"/><path class="cls-16" d="M294.66,146.88c19.11-25.72,33.72-43.33,55.38-72.49" transform="translate(-2.16 0)"/><path class="cls-17" d="M273.07,174h0c-5.75-8.07-10.63-14.13-7.48-18.06L281,136.78c3.15-3.93,10.43-.54,16.18,7.54h0c5.74,8.08,7.87,17.9,4.72,21.83l-15.37,19.17C283.33,189.25,278.81,182.09,273.07,174Z" transform="translate(-2.16 0)"/><ellipse class="cls-18" cx="293.53" cy="148.25" rx="3.78" ry="15.63" transform="translate(-34.59 191.7) rotate(-34.39)"/><path class="cls-19" d="M187.58,159.06l-.66,3.3c-2.59,9.32-4.41,14.38-9.3,11.32l-23.89-14.93c-4.89-3.06-7.21-14.36-5.16-25.11h0c2.06-10.75,7.75-17,12.65-14l23.88,14.93C186.9,136.46,189.64,148.31,187.58,159.06Z" transform="translate(-2.16 0)"/><ellipse class="cls-20" cx="155.34" cy="137.41" rx="19.49" ry="8.23" transform="translate(4.48 281.98) rotate(-85.69)"/><path class="cls-21" d="M132.23,425.1c-6.47,8.06-23.93-2.6-39-23.81s-22.06-44.94-15.59-53" transform="translate(-2.16 0)"/><path class="cls-22" d="M117,441.62c-6.36,7.92-23.51-2.55-38.32-23.39S57,374.09,63.32,366.17" transform="translate(-2.16 0)"/><line class="cls-23" x1="308.42" y1="184.5" x2="295.28" y2="171.27"/></svg>
